<?xml version="1.0" encoding="utf-8"?>
<!-- Generator: Adobe Illustrator 27.0.0, SVG Export Plug-In . SVG Version: 6.00 Build 0)  -->
<svg version="1.1" id="Layer_1" xmlns="http://www.w3.org/2000/svg" xmlns:xlink="http://www.w3.org/1999/xlink" x="0px" y="0px"
	 viewBox="0 0 1280 1024" style="enable-background:new 0 0 1280 1024;" xml:space="preserve">
<style type="text/css">
	.st0{fill:none;stroke:#000000;stroke-width:4;stroke-miterlimit:10;}
</style>
<g>
	<path d="M512.5,282.9l100.98,174.9H411.52L512.5,282.9 M512.5,274.9L404.59,461.8h215.82L512.5,274.9L512.5,274.9z"/>
</g>
<g>
	<path d="M512.5,341c32.26,0,58.5,26.24,58.5,58.5S544.76,458,512.5,458S454,431.76,454,399.5S480.24,341,512.5,341 M512.5,337
		c-34.52,0-62.5,27.98-62.5,62.5s27.98,62.5,62.5,62.5s62.5-27.98,62.5-62.5S547.02,337,512.5,337L512.5,337z"/>
</g>
<g>
	<line class="st0" x1="512.5" y1="280" x2="512.5" y2="459"/>
</g>
</svg>
